<svg xmlns="http://www.w3.org/2000/svg" xmlns:xlink="http://www.w3.org/1999/xlink" viewBox="0 0 1080 1080"><defs><style>.cls-1{fill:url(#linear-gradient);}.cls-2{fill:url(#linear-gradient-2);}.cls-3{fill:#fff;stroke-width:55.43px;}.cls-3,.cls-4{stroke:#fff;stroke-linejoin:round;}.cls-3,.cls-4,.cls-5,.cls-6{stroke-linecap:round;}.cls-4,.cls-5,.cls-6{fill:none;}.cls-4{stroke-width:70.37px;}.cls-5,.cls-6{stroke-miterlimit:10;stroke-width:60.69px;}.cls-5{stroke:url(#linear-gradient-3);}.cls-6{stroke:url(#linear-gradient-4);}</style><linearGradient id="linear-gradient" x1="539.77" y1="145.15" x2="539.77" y2="876.16" gradientUnits="userSpaceOnUse"><stop offset="0" stop-color="#2f3737"/><stop offset="1" stop-color="#232323"/></linearGradient><linearGradient id="linear-gradient-2" x1="540" y1="0" x2="540" y2="1080" xlink:href="#linear-gradient"/><linearGradient id="linear-gradient-3" x1="539.88" y1="540.34" x2="539.88" y2="189.41" gradientUnits="userSpaceOnUse"><stop offset="0" stop-color="#a58c3e"/><stop offset="0.5" stop-color="#c3aa62"/><stop offset="1" stop-color="#a88d48"/></linearGradient><linearGradient id="linear-gradient-4" x1="523.92" y1="-1505.9" x2="523.92" y2="-1711.51" gradientTransform="translate(938.06 -1026.31) rotate(180)" xlink:href="#linear-gradient-3"/></defs><title>Icon</title><g id="Layer_2" data-name="Layer 2"><g id="Layer_1-2" data-name="Layer 1"><circle class="cls-1" cx="539.77" cy="510.66" r="365.5"/><rect class="cls-2" width="1080" height="1080"/><polygon class="cls-3" points="938.49 237.42 923.06 352.53 807.95 337.09 938.49 237.42"/><path class="cls-4" d="M895.53,319.9A403.81,403.81,0,0,0,747,171.41c-140.9-81.35-310.31-68.6-435.45,18.77"/><polygon class="cls-3" points="577.03 992.58 485.06 921.66 555.99 829.69 577.03 992.58"/><path class="cls-4" d="M527.09,914.14A404,404,0,0,0,730,859.71c140.9-81.35,214.55-234.44,201.46-386.5"/><line class="cls-5" x1="539.77" y1="509.99" x2="540" y2="219.75"/><line class="cls-6" x1="288.41" y1="654.86" x2="539.88" y2="509.94"/><polygon class="cls-3" points="103.2 300.97 210.61 256.79 254.79 364.19 103.2 300.97"/><path class="cls-4" d="M196.11,296.94A403.89,403.89,0,0,0,141.8,499.86c0,162.7,95.76,303,234,367.73"/></g></g></svg>